<svg width="323" height="77" viewBox="0 0 323 77" fill="none" xmlns="http://www.w3.org/2000/svg">
<g clip-path="url(#clip0_867_1141)">
<path d="M24.5722 35.9446C22.0819 37.736 18.8706 38.5073 15.6261 37.82C12.3891 37.1327 9.77734 35.1184 8.24341 32.4752C10.7264 30.6801 13.9414 29.9051 17.1821 30.596C20.4266 31.287 23.0383 33.2977 24.5722 35.9482V35.9446ZM19.6909 18.6267C18.4475 21.2699 18.1533 24.3701 19.095 27.3752C20.0366 30.3803 22.0451 32.764 24.5796 34.2373C25.8229 31.5941 26.1172 28.4976 25.1792 25.4924C24.2375 22.4873 22.2253 20.1 19.6945 18.6267H19.6909ZM28.4567 29.4517C27.0258 30.7825 26.2496 32.5592 26.1393 34.3945C27.9895 34.4091 29.8288 33.7657 31.2597 32.4349C32.6906 31.1042 33.4668 29.3275 33.5808 27.4885C31.7306 27.4739 29.8913 28.121 28.4567 29.4517ZM30.7925 25.1195C31.0169 24.0118 30.7815 22.9114 30.2077 22.0047C29.3285 22.6189 28.6811 23.5402 28.453 24.6479C28.2286 25.7557 28.4641 26.8561 29.0379 27.7591C29.9171 27.1449 30.5645 26.2236 30.7925 25.1159V25.1195Z" fill="#43A639"/>
<path d="M62.1002 41.2675L60.0697 48.2502H58.6277C58.6351 48.1039 58.6388 47.9577 58.6388 47.8078C58.6388 43.3001 54.8683 39.6479 50.2187 39.6479C45.5691 39.6479 41.7987 43.3001 41.7987 47.8078C41.7987 47.9577 41.8023 48.1039 41.8097 48.2502H36.5458L31.8042 38.5767L33.2756 35.6557C33.3602 35.4875 33.5331 35.3815 33.7244 35.3815H35.0339C35.273 35.3815 35.479 35.5497 35.5268 35.78L36.7996 42.1083H39.1685V37.9223C39.1685 37.2643 39.7093 36.7305 40.3714 36.7378L47.71 36.8036V27.1412H35.3613C34.7507 27.1412 34.2578 26.6513 34.2578 26.0444C34.2578 25.4375 34.7507 24.9476 35.3613 24.9476H49.9171V32.0181H52.0322L62.1002 41.2675Z" fill="#545454"/>
<path d="M50.182 55.4852C46.2092 55.4852 42.9758 52.2717 42.9758 48.3234C42.9758 44.375 46.2092 41.1615 50.182 41.1615C54.1548 41.1615 57.3881 44.375 57.3881 48.3234C57.3881 52.2717 54.1548 55.4852 50.182 55.4852ZM50.182 45.0367C48.3575 45.0367 46.875 46.51 46.875 48.3234C46.875 50.1367 48.3575 51.61 50.182 51.61C52.0065 51.61 53.489 50.1367 53.489 48.3234C53.489 46.51 52.0065 45.0367 50.182 45.0367Z" fill="#7C8688"/>
<path d="M41.3279 71.9256H48.6186C44.1051 74.2983 38.9589 75.64 33.4963 75.64C28.0338 75.64 22.8876 74.2983 18.3741 71.9256H21.2139V72.9748H22.3174V71.9256H40.2243V74.3202H41.3279V71.9256ZM58.9699 63.3416C59.2016 63.0528 59.426 62.7603 59.6467 62.4606H59.0949V56.2968H3.77783C4.9807 59.0423 6.55877 61.5868 8.44951 63.8681V62.9248H16.9137V64.0216H8.57458C11.1937 67.1474 14.3976 69.776 18.0136 71.7355V70.8288H49.0711V71.6843C52.4921 69.8198 55.5378 67.3558 58.0613 64.4384H52.7937V63.3416H58.9699ZM60.1985 56.2968V61.6855C61.3719 60.0001 62.3835 58.1942 63.2185 56.2968H60.1985Z" fill="#AE2C2E"/>
<path d="M20.7136 57.5251H14.6331V59.7187H15.9978V67.2059H14.6478V69.2203H20.5481V67.2059H18.7898V65.0307H20.7136C22.7956 65.0307 24.4914 63.3489 24.4914 61.2797C24.4914 59.2105 22.7956 57.5251 20.7136 57.5251ZM20.3237 62.8371H18.7898V59.7187H20.3237C21.1881 59.7187 21.8944 60.4169 21.8944 61.2797C21.8944 62.1425 21.1881 62.8371 20.3237 62.8371Z" fill="white"/>
<path d="M41.8833 57.7555V59.6456H40.7835L37.6494 69.213H35.4313L33.5699 64.0144L31.9845 69.33H29.7664L26.2645 59.6456H25.3191V57.7555H30.2409V59.6456H29.2771L31.0318 64.921L32.5988 59.6456H31.5872V57.7555H35.9462V59.6456H34.8501L36.7371 64.8808L38.2674 59.6456H37.539V57.7555H41.8833Z" fill="white"/>
<path d="M48.6995 57.2217H42.6006V59.7808H44.495V67.1437H42.6006V69.7028H48.6995C51.9366 69.7028 54.5741 67.0852 54.5741 63.8644V63.0601C54.5741 59.8429 51.9366 57.2217 48.6995 57.2217ZM51.6386 63.8644C51.6386 65.6741 50.1599 67.1437 48.339 67.1437H47.07V59.7808H48.339C50.1599 59.7808 51.6386 61.2541 51.6386 63.0601V63.8644Z" fill="white"/>
<path d="M28.5304 55.5437C23.5607 55.5437 19.5181 51.5259 19.5181 46.5868C19.5181 41.6477 23.5607 37.6299 28.5304 37.6299C33.5 37.6299 37.5427 41.6477 37.5427 46.5868C37.5427 51.5259 33.5 55.5437 28.5304 55.5437ZM28.5304 40.1927C24.9806 40.1927 22.093 43.0625 22.093 46.5904C22.093 50.1183 24.9806 52.9882 28.5304 52.9882C32.0801 52.9882 34.9677 50.1183 34.9677 46.5904C34.9677 43.0625 32.0801 40.1927 28.5304 40.1927Z" fill="#EF8724"/>
<path d="M31.3003 43.79H17.4214V49.4237H31.3003V43.79Z" fill="#7C8688"/>
<path d="M35.1002 2.24109L35.0745 2.97958C35.6557 3.00151 36.2369 3.03441 36.8144 3.0856C37.0277 3.50236 37.1418 3.95569 37.0976 4.29935C37.0388 4.74902 36.6783 4.85869 36.2001 4.7673C36.086 4.58085 35.9426 4.30666 35.8322 4.08365L35.1922 4.39805C35.663 5.47288 36.5201 6.70857 37.3036 7.57135L37.9474 7.15458C37.3846 6.51115 36.991 5.98105 36.6672 5.49482C36.9064 5.49482 37.1197 5.46191 37.2963 5.39245L39.3489 5.63008L39.0951 7.60425L39.9374 7.70296L40.4634 3.53892C41.4235 3.69978 42.3763 3.8972 43.318 4.13118C43.4541 4.55891 43.4945 5.00493 43.4026 5.32665C43.2812 5.76169 42.9096 5.82384 42.4462 5.67395C42.3615 5.47288 42.2622 5.18041 42.185 4.94643L41.5155 5.1731C41.8245 6.28814 42.4829 7.6335 43.1304 8.59134L43.8329 8.26231C43.3658 7.55307 43.0531 6.97544 42.8066 6.45265C43.4982 6.54405 43.9985 6.32836 44.1824 5.6703C44.3001 5.24256 44.2744 4.80386 44.1419 4.33956C45.5398 4.7088 46.9192 5.15482 48.2692 5.67395L47.8535 6.59523C47.6071 6.36491 47.3238 6.17115 47.0075 6.04685C46.2387 5.73976 45.3853 5.87137 45.0064 6.71588C44.6201 7.57501 45.1204 8.28425 45.8672 8.58403C46.2093 8.72295 46.6102 8.75586 46.9192 8.67177L46.5182 9.57111L47.2907 9.87821L48.2324 7.77974C48.523 7.70662 48.8872 7.67372 49.1962 7.79802C49.6302 7.96984 49.6486 8.33909 49.5162 8.63521C49.3507 9.00446 48.935 9.2823 48.306 9.55284L48.7364 10.1634C49.4059 9.90745 50.0238 9.50897 50.285 8.92768C50.5793 8.27328 50.3843 7.47264 49.5309 7.12899C49.2403 7.012 48.9019 6.97179 48.5856 6.99738L49.0417 5.98105C50.2335 6.46728 51.4033 7.00835 52.5473 7.60425L50.296 11.2565L51.0207 11.655L53.2793 7.99543C54.0334 8.40855 54.7765 8.84725 55.5048 9.30789V9.30058L55.8064 9.498C55.7071 9.43585 55.6041 9.37004 55.5048 9.30789C55.4827 9.77219 55.3577 10.2255 55.1443 10.5143C54.8684 10.8872 54.4969 10.8251 54.118 10.5326C54.107 10.3169 54.1217 10.0098 54.1364 9.76488L53.4228 9.75756C53.3051 10.9092 53.4338 12.3825 53.695 13.4902L54.4711 13.4061C54.2946 12.5909 54.21 11.9511 54.1695 11.3771C54.7875 11.6879 55.3356 11.6477 55.7512 11.092C56.0308 10.7154 56.1632 10.2694 56.2037 9.76122C56.4833 9.94401 56.7592 10.1341 57.035 10.3242L57.4618 9.721C50.8809 5.12923 43.1487 2.54087 35.1002 2.24109ZM39.4335 4.95375L37.8664 4.77461C37.8885 4.70515 37.9069 4.62472 37.9179 4.54063C37.9768 4.08365 37.8738 3.63032 37.6568 3.16602L37.2889 3.12215C38.0724 3.19527 38.8559 3.29032 39.6321 3.40366L39.4335 4.95375ZM47.2466 7.96619C46.9339 8.14532 46.5293 8.19651 46.1725 8.05027C45.7973 7.90038 45.5508 7.5677 45.7531 7.11802C45.9701 6.63545 46.4447 6.59523 46.8861 6.77072C47.1326 6.86942 47.379 7.04491 47.574 7.23501L47.2466 7.96619Z" fill="black"/>
<path d="M55.8063 9.49795C55.707 9.4358 55.604 9.37 55.5046 9.30785V9.30054L55.8063 9.49795Z" fill="black"/>
<path d="M16.0565 6.81091C15.9756 6.84747 15.891 6.88769 15.8101 6.9279L16.0565 6.81091Z" fill="black"/>
<path d="M33.5 77.0001C15.0266 77.0001 0 62.0658 0 43.706C0 25.3462 15.0266 10.412 33.5 10.412C51.9734 10.412 67 25.3462 67 43.706C67 62.0658 51.9734 77.0001 33.5 77.0001ZM33.5 12.5799C16.2295 12.5799 2.17767 26.5417 2.17767 43.706C2.17767 60.8704 16.2295 74.8358 33.5 74.8358C50.7705 74.8358 64.8223 60.8704 64.8223 43.706C64.8223 26.5417 50.7705 12.5763 33.5 12.5763V12.5799Z" fill="black"/>
<path d="M15.8101 6.92425C15.891 6.88769 15.9756 6.84747 16.0565 6.81091L15.8101 6.92425Z" fill="black"/>
<path d="M15.8102 6.92418C14.6073 7.49816 13.4265 8.13062 12.2788 8.82158L14.8207 12.3787L14.1254 12.8211L11.5799 9.25663C11.1091 9.5491 10.6382 9.8562 10.1784 10.1743L9.75537 9.56738C10.1821 9.27491 10.6125 8.98975 11.0465 8.71556C10.8258 8.56567 10.6456 8.39019 10.5131 8.20374C9.96872 7.44697 10.1747 6.46354 11.1826 5.82377C12.2825 5.1255 13.8495 5.08162 15.3393 5.39969L15.2216 6.09065C13.9746 5.82742 12.5547 5.91516 11.8374 6.37215C11.1091 6.83279 10.9546 7.41042 11.3482 7.9588C11.4254 8.06482 11.5615 8.18546 11.7234 8.29148C17.1013 5.02313 23.1488 3.00874 29.4316 2.40553C29.0969 1.28683 28.7253 0.716512 28.1736 0.764038C27.688 0.807909 27.4673 1.12963 27.5078 1.50252C27.5335 1.76575 27.6549 1.97048 27.791 2.17521L27.1951 2.40187C26.9229 2.09478 26.7426 1.75844 26.7095 1.43672C26.6286 0.658018 27.1546 0.0840458 28.0044 0.00727243C29.2146 -0.102404 29.8767 0.983391 30.2556 2.33606C30.6308 2.30682 31.006 2.28123 31.3849 2.26295L31.4217 3.00143C31.0722 3.01971 30.7228 3.04165 30.3733 3.06724L30.8 7.19106L29.965 7.26418L29.5383 3.14036C28.821 3.20616 28.1037 3.2939 27.3937 3.39992L28.6297 7.4945L27.8241 7.7102L27.059 5.19496C27.0112 5.1913 26.956 5.19861 26.9082 5.21324C26.4741 5.32657 26.2129 5.88226 26.1173 6.9973L25.3411 6.91322C25.3595 6.5586 25.4073 6.23322 25.4883 5.94807C25.1903 5.76893 24.8813 5.69947 24.5834 5.7799C24.1272 5.90054 23.9507 6.28441 24.0794 6.70483C24.2486 7.26418 24.8629 7.56396 25.7862 7.84181L25.4478 8.47793C24.3148 8.18912 23.4725 7.6517 23.2223 6.83644C23.1819 6.70483 23.1635 6.58419 23.1561 6.45989C22.9906 6.36118 22.8324 6.33559 22.6632 6.38312C22.3137 6.47451 22.0415 6.94246 22.0231 8.0831L21.2617 8.00267C21.2727 7.64074 21.3095 7.28977 21.3868 6.9973C21.0851 6.8401 20.8056 6.78892 20.5076 6.86935C20.0515 6.98999 19.8749 7.37386 20.0036 7.79428C20.1729 8.35363 20.7872 8.65341 21.7105 8.93126L21.372 9.56373C20.2391 9.27857 19.393 8.74115 19.1466 7.92589C18.9075 7.13257 19.3525 6.40505 20.1802 6.1857C20.743 6.03581 21.1992 6.14548 21.6295 6.36484C21.8429 6.0029 22.0967 5.78721 22.4241 5.69947C22.7625 5.60807 23.0458 5.63001 23.329 5.77258C23.5092 5.45452 23.8293 5.20958 24.256 5.09625C24.8188 4.94636 25.3264 5.09625 25.7421 5.31926C25.9665 4.9098 26.2718 4.63561 26.6249 4.54056C26.7095 4.51496 26.7941 4.50765 26.8493 4.504L26.544 3.53519C23.1009 4.12013 19.7535 5.14012 16.579 6.57322L17.2595 7.74676L17.1712 8.11965L16.2001 8.61685C15.5048 8.97147 15.2621 9.42115 15.5674 9.94759C15.9095 10.5398 16.5495 10.5325 17.0829 10.2583C17.2779 10.1596 17.4287 10.0426 17.4986 9.95856C17.3735 9.84888 17.2153 9.64415 17.116 9.47233L17.4912 9.04459C18.0393 8.88008 18.3851 9.06287 18.5322 9.31513C18.6242 9.47233 18.6279 9.65878 18.558 9.84157C18.878 10.0938 19.4261 10.4265 19.7829 10.5727L19.3857 11.176C19.0362 11.0517 18.4697 10.7044 18.1092 10.4119C17.9768 10.5545 17.7818 10.7117 17.5059 10.8542C16.5238 11.3551 15.332 11.2198 14.7802 10.2657C14.3277 9.4833 14.5742 8.63879 15.6777 8.07213L16.3031 7.75407L15.8102 6.92784" fill="black"/>
</g>
<path d="M80.598 25.5V10.9545H85.7827C86.9143 10.9545 87.8518 11.1605 88.5952 11.5724C89.3385 11.9844 89.8949 12.5478 90.2642 13.2628C90.6335 13.973 90.8182 14.7732 90.8182 15.6634C90.8182 16.5582 90.6312 17.3632 90.2571 18.0781C89.8878 18.7884 89.3291 19.3518 88.581 19.7685C87.8376 20.1804 86.9025 20.3864 85.7756 20.3864H82.2102V18.5256H85.5767C86.2917 18.5256 86.8717 18.4025 87.3168 18.1562C87.7618 17.9053 88.0885 17.5644 88.2969 17.1335C88.5052 16.7027 88.6094 16.2126 88.6094 15.6634C88.6094 15.1141 88.5052 14.6264 88.2969 14.2003C88.0885 13.7741 87.7595 13.4403 87.3097 13.1989C86.8646 12.9574 86.2775 12.8366 85.5483 12.8366H82.7926V25.5H80.598ZM100.131 20.9759V14.5909H102.262V25.5H100.174V23.6108H100.06C99.8091 24.1932 99.4066 24.6785 98.8526 25.0668C98.3034 25.4503 97.6192 25.642 96.8001 25.642C96.0993 25.642 95.479 25.4882 94.9393 25.1804C94.4042 24.8679 93.9828 24.4062 93.6751 23.7955C93.372 23.1847 93.2205 22.4295 93.2205 21.5298V14.5909H95.3441V21.2741C95.3441 22.0175 95.5501 22.6094 95.962 23.0497C96.3739 23.4901 96.909 23.7102 97.5671 23.7102C97.9648 23.7102 98.3602 23.6108 98.7532 23.4119C99.1509 23.2131 99.48 22.9124 99.7404 22.5099C100.006 22.1075 100.136 21.5961 100.131 20.9759ZM105.286 25.5V10.9545H107.409V16.3594H107.537C107.66 16.1321 107.838 15.8693 108.07 15.571C108.302 15.2727 108.624 15.0123 109.036 14.7898C109.447 14.5625 109.992 14.4489 110.669 14.4489C111.55 14.4489 112.336 14.6714 113.027 15.1165C113.718 15.5616 114.26 16.2031 114.653 17.0412C115.051 17.8793 115.25 18.8878 115.25 20.0668C115.25 21.2457 115.054 22.2566 114.661 23.0994C114.268 23.9375 113.728 24.5838 113.041 25.0384C112.355 25.4882 111.571 25.7131 110.69 25.7131C110.027 25.7131 109.485 25.6018 109.064 25.3793C108.647 25.1567 108.321 24.8963 108.084 24.598C107.847 24.2997 107.665 24.0346 107.537 23.8026H107.359V25.5H105.286ZM107.366 20.0455C107.366 20.8125 107.478 21.4848 107.7 22.0625C107.923 22.6402 108.245 23.0923 108.666 23.419C109.088 23.741 109.604 23.902 110.214 23.902C110.849 23.902 111.379 23.7339 111.805 23.3977C112.232 23.0568 112.554 22.5952 112.771 22.0128C112.994 21.4304 113.105 20.7746 113.105 20.0455C113.105 19.3258 112.996 18.6795 112.778 18.1065C112.565 17.5336 112.243 17.0814 111.812 16.75C111.386 16.4186 110.854 16.2528 110.214 16.2528C109.599 16.2528 109.078 16.4115 108.652 16.7287C108.231 17.0459 107.911 17.4886 107.693 18.0568C107.475 18.625 107.366 19.2879 107.366 20.0455ZM119.758 10.9545V25.5H117.635V10.9545H119.758ZM122.615 25.5V14.5909H124.739V25.5H122.615ZM123.688 12.9077C123.318 12.9077 123.001 12.7846 122.736 12.5384C122.475 12.2874 122.345 11.9891 122.345 11.6435C122.345 11.2931 122.475 10.9948 122.736 10.7486C123.001 10.4976 123.318 10.3722 123.688 10.3722C124.057 10.3722 124.372 10.4976 124.632 10.7486C124.897 10.9948 125.03 11.2931 125.03 11.6435C125.03 11.9891 124.897 12.2874 124.632 12.5384C124.372 12.7846 124.057 12.9077 123.688 12.9077ZM132.191 25.7202C131.135 25.7202 130.226 25.4811 129.463 25.0028C128.706 24.5199 128.123 23.8546 127.716 23.0071C127.309 22.1596 127.105 21.1889 127.105 20.0952C127.105 18.9872 127.314 18.0095 127.73 17.1619C128.147 16.3097 128.734 15.6444 129.492 15.1662C130.249 14.688 131.142 14.4489 132.169 14.4489C132.998 14.4489 133.737 14.6027 134.385 14.9105C135.034 15.2135 135.557 15.6397 135.955 16.1889C136.357 16.7382 136.596 17.3797 136.672 18.1136H134.605C134.492 17.6023 134.231 17.1619 133.824 16.7926C133.422 16.4233 132.882 16.2386 132.205 16.2386C131.613 16.2386 131.095 16.3949 130.65 16.7074C130.209 17.0152 129.866 17.4555 129.62 18.0284C129.373 18.5966 129.25 19.2689 129.25 20.0455C129.25 20.8409 129.371 21.5275 129.613 22.1051C129.854 22.6828 130.195 23.1302 130.635 23.4474C131.08 23.7647 131.604 23.9233 132.205 23.9233C132.607 23.9233 132.972 23.8499 133.299 23.7031C133.63 23.5516 133.907 23.3362 134.13 23.0568C134.357 22.7775 134.516 22.4413 134.605 22.0483H136.672C136.596 22.7538 136.367 23.3835 135.983 23.9375C135.6 24.4915 135.086 24.9271 134.442 25.2443C133.803 25.5616 133.052 25.7202 132.191 25.7202ZM147.255 25.5L143.221 10.9545H145.529L148.363 22.2188H148.498L151.445 10.9545H153.732L156.679 22.2259H156.814L159.641 10.9545H161.956L157.915 25.5H155.706L152.645 14.6051H152.532L149.471 25.5H147.255ZM167.308 25.7202C166.285 25.7202 165.393 25.4858 164.63 25.017C163.868 24.5483 163.276 23.8925 162.855 23.0497C162.433 22.2069 162.223 21.2221 162.223 20.0952C162.223 18.9635 162.433 17.974 162.855 17.1264C163.276 16.2789 163.868 15.6207 164.63 15.152C165.393 14.6832 166.285 14.4489 167.308 14.4489C168.331 14.4489 169.223 14.6832 169.985 15.152C170.748 15.6207 171.34 16.2789 171.761 17.1264C172.182 17.974 172.393 18.9635 172.393 20.0952C172.393 21.2221 172.182 22.2069 171.761 23.0497C171.34 23.8925 170.748 24.5483 169.985 25.017C169.223 25.4858 168.331 25.7202 167.308 25.7202ZM167.315 23.9375C167.978 23.9375 168.527 23.7623 168.963 23.4119C169.398 23.0616 169.72 22.5952 169.929 22.0128C170.142 21.4304 170.248 20.7888 170.248 20.0881C170.248 19.392 170.142 18.7528 169.929 18.1705C169.72 17.5833 169.398 17.1122 168.963 16.7571C168.527 16.402 167.978 16.2244 167.315 16.2244C166.647 16.2244 166.093 16.402 165.653 16.7571C165.217 17.1122 164.893 17.5833 164.68 18.1705C164.472 18.7528 164.368 19.392 164.368 20.0881C164.368 20.7888 164.472 21.4304 164.68 22.0128C164.893 22.5952 165.217 23.0616 165.653 23.4119C166.093 23.7623 166.647 23.9375 167.315 23.9375ZM174.763 25.5V14.5909H176.816V16.3239H176.93C177.129 15.7367 177.479 15.2751 177.981 14.9389C178.487 14.598 179.06 14.4276 179.7 14.4276C179.832 14.4276 179.988 14.4323 180.168 14.4418C180.353 14.4512 180.497 14.4631 180.602 14.4773V16.5085C180.516 16.4848 180.365 16.4588 180.147 16.4304C179.929 16.3973 179.711 16.3807 179.494 16.3807C178.992 16.3807 178.544 16.4872 178.151 16.7003C177.763 16.9086 177.455 17.1998 177.228 17.5739C177.001 17.9432 176.887 18.3646 176.887 18.8381V25.5H174.763ZM184.392 21.7997L184.378 19.2074H184.748L189.094 14.5909H191.637L186.679 19.8466H186.346L184.392 21.7997ZM182.439 25.5V10.9545H184.563V25.5H182.439ZM189.328 25.5L185.422 20.3153L186.885 18.831L191.935 25.5H189.328ZM201.747 17.2543L199.822 17.5952C199.742 17.349 199.614 17.1146 199.439 16.892C199.268 16.6695 199.036 16.4872 198.743 16.3452C198.449 16.2031 198.082 16.1321 197.642 16.1321C197.04 16.1321 196.538 16.267 196.136 16.5369C195.734 16.8021 195.532 17.1454 195.532 17.5668C195.532 17.9313 195.667 18.2249 195.937 18.4474C196.207 18.67 196.643 18.8523 197.244 18.9943L198.977 19.392C199.981 19.6241 200.729 19.9815 201.221 20.4645C201.714 20.9474 201.96 21.5748 201.96 22.3466C201.96 23 201.77 23.5824 201.392 24.0938C201.018 24.6004 200.494 24.9981 199.822 25.2869C199.154 25.5758 198.38 25.7202 197.5 25.7202C196.278 25.7202 195.281 25.4598 194.51 24.9389C193.738 24.4134 193.264 23.6676 193.089 22.7017L195.142 22.3892C195.27 22.9242 195.532 23.3291 195.93 23.6037C196.328 23.8736 196.846 24.0085 197.485 24.0085C198.181 24.0085 198.738 23.8641 199.154 23.5753C199.571 23.2817 199.779 22.9242 199.779 22.5028C199.779 22.1619 199.652 21.8755 199.396 21.6435C199.145 21.4115 198.759 21.2363 198.238 21.1179L196.392 20.7131C195.374 20.4811 194.621 20.1117 194.133 19.6051C193.65 19.0985 193.409 18.4569 193.409 17.6804C193.409 17.0365 193.589 16.473 193.949 15.9901C194.308 15.5071 194.806 15.1307 195.44 14.8608C196.074 14.5862 196.801 14.4489 197.62 14.4489C198.799 14.4489 199.727 14.7045 200.404 15.2159C201.082 15.7225 201.529 16.402 201.747 17.2543ZM214.467 25.5H209.758V10.9545H214.616C216.041 10.9545 217.265 11.2457 218.288 11.8281C219.311 12.4058 220.094 13.2367 220.639 14.321C221.188 15.4006 221.463 16.6955 221.463 18.206C221.463 19.7211 221.186 21.0232 220.632 22.1122C220.083 23.2012 219.287 24.0393 218.245 24.6264C217.204 25.2088 215.944 25.5 214.467 25.5ZM211.953 23.5824H214.346C215.454 23.5824 216.375 23.3741 217.109 22.9574C217.843 22.536 218.392 21.9276 218.757 21.1321C219.121 20.3319 219.304 19.3565 219.304 18.206C219.304 17.0649 219.121 16.0966 218.757 15.3011C218.397 14.5057 217.859 13.902 217.145 13.4901C216.43 13.0781 215.542 12.8722 214.481 12.8722H211.953V23.5824ZM228.723 25.7202C227.648 25.7202 226.723 25.4905 225.946 25.0312C225.174 24.5672 224.578 23.9162 224.156 23.0781C223.74 22.2353 223.531 21.2481 223.531 20.1165C223.531 18.9991 223.74 18.0142 224.156 17.1619C224.578 16.3097 225.165 15.6444 225.918 15.1662C226.675 14.688 227.561 14.4489 228.574 14.4489C229.189 14.4489 229.786 14.5507 230.364 14.7543C230.941 14.9579 231.46 15.2775 231.919 15.7131C232.378 16.1487 232.741 16.7145 233.006 17.4105C233.271 18.1018 233.403 18.9422 233.403 19.9318V20.6847H224.732V19.0938H231.322C231.322 18.535 231.209 18.0402 230.982 17.6094C230.754 17.1738 230.435 16.8305 230.023 16.5795C229.616 16.3286 229.137 16.2031 228.588 16.2031C227.991 16.2031 227.471 16.3499 227.026 16.6435C226.585 16.9323 226.244 17.3111 226.003 17.7798C225.766 18.2438 225.648 18.7481 225.648 19.2926V20.5355C225.648 21.2647 225.776 21.8849 226.031 22.3963C226.292 22.9077 226.654 23.2983 227.118 23.5682C227.582 23.8333 228.124 23.9659 228.744 23.9659C229.147 23.9659 229.514 23.9091 229.845 23.7955C230.177 23.6771 230.463 23.5019 230.705 23.2699C230.946 23.0379 231.131 22.7514 231.259 22.4105L233.268 22.7727C233.107 23.3646 232.819 23.883 232.402 24.3281C231.99 24.7685 231.472 25.1117 230.847 25.358C230.226 25.5994 229.518 25.7202 228.723 25.7202ZM235.76 29.5909V14.5909H237.833V16.3594H238.011C238.134 16.1321 238.312 15.8693 238.544 15.571C238.776 15.2727 239.098 15.0123 239.51 14.7898C239.922 14.5625 240.466 14.4489 241.143 14.4489C242.024 14.4489 242.81 14.6714 243.501 15.1165C244.192 15.5616 244.734 16.2031 245.127 17.0412C245.525 17.8793 245.724 18.8878 245.724 20.0668C245.724 21.2457 245.528 22.2566 245.135 23.0994C244.742 23.9375 244.202 24.5838 243.515 25.0384C242.829 25.4882 242.045 25.7131 241.164 25.7131C240.502 25.7131 239.959 25.6018 239.538 25.3793C239.121 25.1567 238.795 24.8963 238.558 24.598C238.321 24.2997 238.139 24.0346 238.011 23.8026H237.883V29.5909H235.76ZM237.841 20.0455C237.841 20.8125 237.952 21.4848 238.174 22.0625C238.397 22.6402 238.719 23.0923 239.14 23.419C239.562 23.741 240.078 23.902 240.689 23.902C241.323 23.902 241.853 23.7339 242.279 23.3977C242.706 23.0568 243.028 22.5952 243.245 22.0128C243.468 21.4304 243.579 20.7746 243.579 20.0455C243.579 19.3258 243.47 18.6795 243.252 18.1065C243.039 17.5336 242.717 17.0814 242.287 16.75C241.86 16.4186 241.328 16.2528 240.689 16.2528C240.073 16.2528 239.552 16.4115 239.126 16.7287C238.705 17.0459 238.385 17.4886 238.167 18.0568C237.949 18.625 237.841 19.2879 237.841 20.0455ZM251.278 25.7415C250.587 25.7415 249.962 25.6136 249.403 25.358C248.844 25.0975 248.402 24.7211 248.075 24.2287C247.753 23.7363 247.592 23.1326 247.592 22.4176C247.592 21.8021 247.71 21.2955 247.947 20.8977C248.184 20.5 248.503 20.1851 248.906 19.9531C249.308 19.7211 249.758 19.5459 250.255 19.4276C250.752 19.3092 251.259 19.2192 251.775 19.1577C252.429 19.0819 252.959 19.0204 253.366 18.973C253.773 18.9209 254.069 18.8381 254.254 18.7244C254.439 18.6108 254.531 18.4261 254.531 18.1705V18.1207C254.531 17.5005 254.356 17.0199 254.005 16.679C253.66 16.3381 253.144 16.1676 252.457 16.1676C251.742 16.1676 251.179 16.3262 250.767 16.6435C250.359 16.956 250.078 17.304 249.922 17.6875L247.926 17.233C248.163 16.5701 248.508 16.035 248.963 15.6278C249.422 15.2159 249.95 14.9176 250.547 14.733C251.143 14.5436 251.77 14.4489 252.429 14.4489C252.864 14.4489 253.326 14.5009 253.814 14.6051C254.306 14.7045 254.765 14.8892 255.191 15.1591C255.622 15.429 255.975 15.8149 256.25 16.3168C256.524 16.8139 256.662 17.4602 256.662 18.2557V25.5H254.588V24.0085H254.502C254.365 24.2831 254.159 24.553 253.885 24.8182C253.61 25.0833 253.257 25.3035 252.826 25.4787C252.395 25.6539 251.879 25.7415 251.278 25.7415ZM251.74 24.0369C252.327 24.0369 252.829 23.9209 253.245 23.6889C253.667 23.4569 253.986 23.1539 254.204 22.7798C254.427 22.401 254.538 21.9962 254.538 21.5653V20.1591C254.462 20.2348 254.315 20.3059 254.098 20.3722C253.885 20.4337 253.641 20.4882 253.366 20.5355C253.092 20.5781 252.824 20.6184 252.564 20.6562C252.303 20.6894 252.085 20.7178 251.91 20.7415C251.498 20.7936 251.122 20.8812 250.781 21.0043C250.445 21.1274 250.175 21.3049 249.971 21.5369C249.772 21.7642 249.673 22.0672 249.673 22.446C249.673 22.9716 249.867 23.3693 250.255 23.6392C250.644 23.9044 251.138 24.0369 251.74 24.0369ZM259.49 25.5V14.5909H261.543V16.3239H261.656C261.855 15.7367 262.205 15.2751 262.707 14.9389C263.214 14.598 263.787 14.4276 264.426 14.4276C264.559 14.4276 264.715 14.4323 264.895 14.4418C265.08 14.4512 265.224 14.4631 265.328 14.4773V16.5085C265.243 16.4848 265.091 16.4588 264.874 16.4304C264.656 16.3973 264.438 16.3807 264.22 16.3807C263.718 16.3807 263.271 16.4872 262.878 16.7003C262.49 16.9086 262.182 17.1998 261.955 17.5739C261.727 17.9432 261.614 18.3646 261.614 18.8381V25.5H259.49ZM272.903 14.5909V16.2955H266.944V14.5909H272.903ZM268.542 11.9773H270.665V22.2969C270.665 22.7088 270.727 23.0189 270.85 23.2273C270.973 23.4309 271.132 23.5705 271.326 23.6463C271.525 23.7173 271.74 23.7528 271.972 23.7528C272.143 23.7528 272.292 23.741 272.42 23.7173C272.548 23.6937 272.647 23.6747 272.718 23.6605L273.102 25.4148C272.978 25.4621 272.803 25.5095 272.576 25.5568C272.349 25.6089 272.065 25.6373 271.724 25.642C271.165 25.6515 270.644 25.5521 270.161 25.3438C269.678 25.1354 269.288 24.8134 268.989 24.3778C268.691 23.9422 268.542 23.3954 268.542 22.7372V11.9773ZM275.252 25.5V14.5909H277.29V16.3665H277.425C277.652 15.7652 278.024 15.2964 278.54 14.9602C279.056 14.6193 279.674 14.4489 280.394 14.4489C281.123 14.4489 281.734 14.6193 282.226 14.9602C282.723 15.3011 283.09 15.7699 283.327 16.3665H283.441C283.701 15.7841 284.115 15.3201 284.684 14.9744C285.252 14.6241 285.929 14.4489 286.715 14.4489C287.704 14.4489 288.512 14.759 289.137 15.3793C289.766 15.9995 290.081 16.9347 290.081 18.1847V25.5H287.958V18.3835C287.958 17.6449 287.757 17.1098 287.354 16.7784C286.952 16.447 286.471 16.2812 285.912 16.2812C285.221 16.2812 284.684 16.4943 284.3 16.9205C283.917 17.3419 283.725 17.884 283.725 18.5469V25.5H281.608V18.2486C281.608 17.6567 281.424 17.1809 281.054 16.821C280.685 16.4612 280.204 16.2812 279.613 16.2812C279.21 16.2812 278.838 16.3878 278.498 16.6009C278.161 16.8092 277.889 17.1004 277.681 17.4744C277.477 17.8485 277.375 18.2817 277.375 18.7741V25.5H275.252ZM297.629 25.7202C296.554 25.7202 295.629 25.4905 294.852 25.0312C294.08 24.5672 293.484 23.9162 293.062 23.0781C292.646 22.2353 292.438 21.2481 292.438 20.1165C292.438 18.9991 292.646 18.0142 293.062 17.1619C293.484 16.3097 294.071 15.6444 294.824 15.1662C295.581 14.688 296.467 14.4489 297.48 14.4489C298.096 14.4489 298.692 14.5507 299.27 14.7543C299.848 14.9579 300.366 15.2775 300.825 15.7131C301.285 16.1487 301.647 16.7145 301.912 17.4105C302.177 18.1018 302.31 18.9422 302.31 19.9318V20.6847H293.638V19.0938H300.229C300.229 18.535 300.115 18.0402 299.888 17.6094C299.661 17.1738 299.341 16.8305 298.929 16.5795C298.522 16.3286 298.044 16.2031 297.494 16.2031C296.898 16.2031 296.377 16.3499 295.932 16.6435C295.491 16.9323 295.151 17.3111 294.909 17.7798C294.672 18.2438 294.554 18.7481 294.554 19.2926V20.5355C294.554 21.2647 294.682 21.8849 294.938 22.3963C295.198 22.9077 295.56 23.2983 296.024 23.5682C296.488 23.8333 297.03 23.9659 297.651 23.9659C298.053 23.9659 298.42 23.9091 298.751 23.7955C299.083 23.6771 299.369 23.5019 299.611 23.2699C299.852 23.0379 300.037 22.7514 300.165 22.4105L302.175 22.7727C302.014 23.3646 301.725 23.883 301.308 24.3281C300.896 24.7685 300.378 25.1117 299.753 25.358C299.133 25.5994 298.425 25.7202 297.629 25.7202ZM306.789 19.0227V25.5H304.666V14.5909H306.704V16.3665H306.839C307.09 15.7888 307.483 15.3248 308.018 14.9744C308.558 14.6241 309.237 14.4489 310.056 14.4489C310.8 14.4489 311.451 14.6051 312.01 14.9176C312.568 15.2254 313.002 15.6847 313.309 16.2955C313.617 16.9062 313.771 17.6615 313.771 18.5611V25.5H311.647V18.8168C311.647 18.026 311.441 17.4081 311.029 16.9631C310.618 16.5133 310.052 16.2884 309.332 16.2884C308.84 16.2884 308.402 16.3949 308.018 16.608C307.639 16.821 307.339 17.1335 307.116 17.5455C306.898 17.9527 306.789 18.4451 306.789 19.0227ZM321.711 14.5909V16.2955H315.752V14.5909H321.711ZM317.35 11.9773H319.474V22.2969C319.474 22.7088 319.536 23.0189 319.659 23.2273C319.782 23.4309 319.94 23.5705 320.135 23.6463C320.333 23.7173 320.549 23.7528 320.781 23.7528C320.951 23.7528 321.1 23.741 321.228 23.7173C321.356 23.6937 321.456 23.6747 321.527 23.6605L321.91 25.4148C321.787 25.4621 321.612 25.5095 321.385 25.5568C321.157 25.6089 320.873 25.6373 320.532 25.642C319.974 25.6515 319.453 25.5521 318.97 25.3438C318.487 25.1354 318.096 24.8134 317.798 24.3778C317.5 23.9422 317.35 23.3954 317.35 22.7372V11.9773Z" fill="black"/>
<path d="M88.1534 38.5398C88.0436 38.1951 87.8958 37.8864 87.7102 37.6136C87.5284 37.3371 87.3106 37.1023 87.0568 36.9091C86.803 36.7121 86.5133 36.5625 86.1875 36.4602C85.8655 36.358 85.5114 36.3068 85.125 36.3068C84.4697 36.3068 83.8788 36.4754 83.3523 36.8125C82.8258 37.1496 82.4091 37.6439 82.1023 38.2955C81.7992 38.9432 81.6477 39.7367 81.6477 40.6761C81.6477 41.6193 81.8011 42.4167 82.108 43.0682C82.4148 43.7197 82.8352 44.214 83.3693 44.5511C83.9034 44.8883 84.5114 45.0568 85.1932 45.0568C85.8258 45.0568 86.3769 44.928 86.8466 44.6705C87.3201 44.4129 87.6856 44.0492 87.9432 43.5795C88.2045 43.1061 88.3352 42.5492 88.3352 41.9091L88.7898 41.9943H85.4602V40.5455H90.0341V41.8693C90.0341 42.8466 89.8258 43.6951 89.4091 44.4148C88.9962 45.1307 88.4242 45.6837 87.6932 46.0739C86.9659 46.464 86.1326 46.6591 85.1932 46.6591C84.1402 46.6591 83.2159 46.4167 82.4205 45.9318C81.6288 45.447 81.0114 44.7595 80.5682 43.8693C80.125 42.9754 79.9034 41.9148 79.9034 40.6875C79.9034 39.7595 80.0322 38.9261 80.2898 38.1875C80.5473 37.4489 80.9091 36.822 81.375 36.3068C81.8447 35.7879 82.3958 35.392 83.0284 35.1193C83.6648 34.8428 84.3598 34.7045 85.1136 34.7045C85.7424 34.7045 86.3277 34.7973 86.8693 34.983C87.4148 35.1686 87.8996 35.4318 88.3239 35.7727C88.7519 36.1136 89.1061 36.5189 89.3864 36.9886C89.6667 37.4545 89.8561 37.9716 89.9545 38.5398H88.1534ZM95.3226 46.6761C94.5044 46.6761 93.7904 46.4886 93.1805 46.1136C92.5707 45.7386 92.0972 45.214 91.7601 44.5398C91.4229 43.8655 91.2544 43.0777 91.2544 42.1761C91.2544 41.2708 91.4229 40.4792 91.7601 39.8011C92.0972 39.1231 92.5707 38.5966 93.1805 38.2216C93.7904 37.8466 94.5044 37.6591 95.3226 37.6591C96.1407 37.6591 96.8548 37.8466 97.4646 38.2216C98.0745 38.5966 98.5479 39.1231 98.8851 39.8011C99.2222 40.4792 99.3907 41.2708 99.3907 42.1761C99.3907 43.0777 99.2222 43.8655 98.8851 44.5398C98.5479 45.214 98.0745 45.7386 97.4646 46.1136C96.8548 46.4886 96.1407 46.6761 95.3226 46.6761ZM95.3282 45.25C95.8585 45.25 96.2979 45.1098 96.6464 44.8295C96.9949 44.5492 97.2525 44.1761 97.4191 43.7102C97.5896 43.2443 97.6748 42.7311 97.6748 42.1705C97.6748 41.6136 97.5896 41.1023 97.4191 40.6364C97.2525 40.1667 96.9949 39.7898 96.6464 39.5057C96.2979 39.2216 95.8585 39.0795 95.3282 39.0795C94.7941 39.0795 94.351 39.2216 93.9987 39.5057C93.6502 39.7898 93.3907 40.1667 93.2203 40.6364C93.0536 41.1023 92.9703 41.6136 92.9703 42.1705C92.9703 42.7311 93.0536 43.2443 93.2203 43.7102C93.3907 44.1761 93.6502 44.5492 93.9987 44.8295C94.351 45.1098 94.7941 45.25 95.3282 45.25ZM107.976 37.7727L104.811 46.5H102.993L99.8227 37.7727H101.647L103.857 44.4886H103.948L106.152 37.7727H107.976ZM113.167 37.7727V39.1364H108.399V37.7727H113.167ZM109.678 35.6818H111.377V43.9375C111.377 44.267 111.426 44.5152 111.524 44.6818C111.623 44.8447 111.75 44.9564 111.905 45.017C112.064 45.0739 112.237 45.1023 112.422 45.1023C112.559 45.1023 112.678 45.0928 112.78 45.0739C112.882 45.0549 112.962 45.0398 113.019 45.0284L113.326 46.4318C113.227 46.4697 113.087 46.5076 112.905 46.5455C112.723 46.5871 112.496 46.6098 112.223 46.6136C111.776 46.6212 111.36 46.5417 110.973 46.375C110.587 46.2083 110.274 45.9508 110.036 45.6023C109.797 45.2538 109.678 44.8163 109.678 44.2898V35.6818ZM115.685 46.608C115.375 46.608 115.107 46.4981 114.884 46.2784C114.66 46.0549 114.549 45.786 114.549 45.4716C114.549 45.161 114.66 44.8958 114.884 44.6761C115.107 44.4527 115.375 44.3409 115.685 44.3409C115.996 44.3409 116.263 44.4527 116.486 44.6761C116.71 44.8958 116.821 45.161 116.821 45.4716C116.821 45.6799 116.768 45.8712 116.662 46.0455C116.56 46.2159 116.424 46.3523 116.253 46.4545C116.083 46.5568 115.893 46.608 115.685 46.608ZM125.86 46.6761C125.042 46.6761 124.328 46.4886 123.718 46.1136C123.108 45.7386 122.635 45.214 122.298 44.5398C121.96 43.8655 121.792 43.0777 121.792 42.1761C121.792 41.2708 121.96 40.4792 122.298 39.8011C122.635 39.1231 123.108 38.5966 123.718 38.2216C124.328 37.8466 125.042 37.6591 125.86 37.6591C126.678 37.6591 127.392 37.8466 128.002 38.2216C128.612 38.5966 129.085 39.1231 129.423 39.8011C129.76 40.4792 129.928 41.2708 129.928 42.1761C129.928 43.0777 129.76 43.8655 129.423 44.5398C129.085 45.214 128.612 45.7386 128.002 46.1136C127.392 46.4886 126.678 46.6761 125.86 46.6761ZM125.866 45.25C126.396 45.25 126.835 45.1098 127.184 44.8295C127.532 44.5492 127.79 44.1761 127.957 43.7102C128.127 43.2443 128.212 42.7311 128.212 42.1705C128.212 41.6136 128.127 41.1023 127.957 40.6364C127.79 40.1667 127.532 39.7898 127.184 39.5057C126.835 39.2216 126.396 39.0795 125.866 39.0795C125.332 39.0795 124.888 39.2216 124.536 39.5057C124.188 39.7898 123.928 40.1667 123.758 40.6364C123.591 41.1023 123.508 41.6136 123.508 42.1705C123.508 42.7311 123.591 43.2443 123.758 43.7102C123.928 44.1761 124.188 44.5492 124.536 44.8295C124.888 45.1098 125.332 45.25 125.866 45.25ZM135.498 37.7727V39.1364H130.566V37.7727H135.498ZM131.918 46.5V36.7614C131.918 36.2159 132.038 35.7633 132.276 35.4034C132.515 35.0398 132.831 34.7689 133.225 34.5909C133.619 34.4091 134.047 34.3182 134.509 34.3182C134.85 34.3182 135.142 34.3466 135.384 34.4034C135.627 34.4564 135.807 34.5057 135.924 34.5511L135.526 35.9261C135.447 35.9034 135.345 35.8769 135.22 35.8466C135.095 35.8125 134.943 35.7955 134.765 35.7955C134.352 35.7955 134.057 35.8977 133.879 36.1023C133.704 36.3068 133.617 36.6023 133.617 36.9886V46.5H131.918ZM150.054 34.8636V46.5H148.44L142.525 37.9659H142.417V46.5H140.662V34.8636H142.287L148.207 43.4091H148.315V34.8636H150.054ZM161.799 38.6477H160.027C159.959 38.2689 159.832 37.9356 159.646 37.6477C159.46 37.3598 159.233 37.1155 158.964 36.9148C158.695 36.714 158.394 36.5625 158.061 36.4602C157.731 36.358 157.381 36.3068 157.01 36.3068C156.339 36.3068 155.739 36.4754 155.209 36.8125C154.682 37.1496 154.265 37.6439 153.959 38.2955C153.655 38.947 153.504 39.7424 153.504 40.6818C153.504 41.6288 153.655 42.428 153.959 43.0795C154.265 43.7311 154.684 44.2235 155.214 44.5568C155.745 44.8902 156.341 45.0568 157.004 45.0568C157.371 45.0568 157.72 45.0076 158.049 44.9091C158.383 44.8068 158.684 44.6572 158.953 44.4602C159.222 44.2633 159.449 44.0227 159.635 43.7386C159.824 43.4508 159.955 43.1212 160.027 42.75L161.799 42.7557C161.705 43.3277 161.521 43.8542 161.248 44.3352C160.979 44.8125 160.633 45.2254 160.209 45.5739C159.788 45.9186 159.307 46.1856 158.765 46.375C158.224 46.5644 157.633 46.6591 156.993 46.6591C155.985 46.6591 155.087 46.4205 154.299 45.9432C153.512 45.4621 152.89 44.7746 152.436 43.8807C151.985 42.9867 151.76 41.9205 151.76 40.6818C151.76 39.4394 151.987 38.3731 152.441 37.483C152.896 36.589 153.517 35.9034 154.305 35.4261C155.093 34.9451 155.989 34.7045 156.993 34.7045C157.61 34.7045 158.186 34.7936 158.72 34.9716C159.258 35.1458 159.741 35.4034 160.169 35.7443C160.597 36.0814 160.951 36.4943 161.231 36.983C161.512 37.4678 161.701 38.0227 161.799 38.6477ZM162.846 36.375V34.8636H171.852V36.375H168.221V46.5H166.471V36.375H162.846ZM180.656 46.6761C179.838 46.6761 179.124 46.4886 178.514 46.1136C177.904 45.7386 177.431 45.214 177.094 44.5398C176.757 43.8655 176.588 43.0777 176.588 42.1761C176.588 41.2708 176.757 40.4792 177.094 39.8011C177.431 39.1231 177.904 38.5966 178.514 38.2216C179.124 37.8466 179.838 37.6591 180.656 37.6591C181.474 37.6591 182.189 37.8466 182.798 38.2216C183.408 38.5966 183.882 39.1231 184.219 39.8011C184.556 40.4792 184.724 41.2708 184.724 42.1761C184.724 43.0777 184.556 43.8655 184.219 44.5398C183.882 45.214 183.408 45.7386 182.798 46.1136C182.189 46.4886 181.474 46.6761 180.656 46.6761ZM180.662 45.25C181.192 45.25 181.632 45.1098 181.98 44.8295C182.329 44.5492 182.586 44.1761 182.753 43.7102C182.923 43.2443 183.009 42.7311 183.009 42.1705C183.009 41.6136 182.923 41.1023 182.753 40.6364C182.586 40.1667 182.329 39.7898 181.98 39.5057C181.632 39.2216 181.192 39.0795 180.662 39.0795C180.128 39.0795 179.685 39.2216 179.332 39.5057C178.984 39.7898 178.724 40.1667 178.554 40.6364C178.387 41.1023 178.304 41.6136 178.304 42.1705C178.304 42.7311 178.387 43.2443 178.554 43.7102C178.724 44.1761 178.984 44.5492 179.332 44.8295C179.685 45.1098 180.128 45.25 180.662 45.25ZM190.294 37.7727V39.1364H185.362V37.7727H190.294ZM186.715 46.5V36.7614C186.715 36.2159 186.834 35.7633 187.073 35.4034C187.311 35.0398 187.628 34.7689 188.021 34.5909C188.415 34.4091 188.843 34.3182 189.306 34.3182C189.646 34.3182 189.938 34.3466 190.181 34.4034C190.423 34.4564 190.603 34.5057 190.72 34.5511L190.323 35.9261C190.243 35.9034 190.141 35.8769 190.016 35.8466C189.891 35.8125 189.739 35.7955 189.561 35.7955C189.148 35.7955 188.853 35.8977 188.675 36.1023C188.501 36.3068 188.414 36.6023 188.414 36.9886V46.5H186.715ZM199.225 46.5H195.458V34.8636H199.344C200.484 34.8636 201.463 35.0966 202.282 35.5625C203.1 36.0246 203.727 36.6894 204.162 37.5568C204.602 38.4205 204.821 39.4564 204.821 40.6648C204.821 41.8769 204.6 42.9186 204.157 43.7898C203.717 44.661 203.081 45.3314 202.248 45.8011C201.414 46.267 200.407 46.5 199.225 46.5ZM197.213 44.9659H199.128C200.015 44.9659 200.751 44.7992 201.338 44.4659C201.926 44.1288 202.365 43.642 202.657 43.0057C202.948 42.3655 203.094 41.5852 203.094 40.6648C203.094 39.7519 202.948 38.9773 202.657 38.3409C202.369 37.7045 201.939 37.2216 201.367 36.892C200.795 36.5625 200.085 36.3977 199.236 36.3977H197.213V44.9659ZM210.15 46.6761C209.29 46.6761 208.549 46.4924 207.928 46.125C207.311 45.7538 206.833 45.233 206.496 44.5625C206.163 43.8883 205.996 43.0985 205.996 42.1932C205.996 41.2992 206.163 40.5114 206.496 39.8295C206.833 39.1477 207.303 38.6155 207.905 38.233C208.511 37.8504 209.22 37.6591 210.03 37.6591C210.523 37.6591 211 37.7405 211.462 37.9034C211.924 38.0663 212.339 38.322 212.706 38.6705C213.074 39.0189 213.364 39.4716 213.576 40.0284C213.788 40.5814 213.894 41.2538 213.894 42.0455V42.6477H206.956V41.375H212.229C212.229 40.928 212.138 40.5322 211.956 40.1875C211.775 39.839 211.519 39.5644 211.189 39.3636C210.864 39.1629 210.481 39.0625 210.042 39.0625C209.564 39.0625 209.148 39.1799 208.792 39.4148C208.439 39.6458 208.167 39.9489 207.974 40.3239C207.784 40.6951 207.689 41.0985 207.689 41.5341V42.5284C207.689 43.1117 207.792 43.608 207.996 44.017C208.205 44.4261 208.494 44.7386 208.866 44.9545C209.237 45.1667 209.67 45.2727 210.167 45.2727C210.489 45.2727 210.782 45.2273 211.047 45.1364C211.313 45.0417 211.542 44.9015 211.735 44.7159C211.928 44.5303 212.076 44.3011 212.178 44.0284L213.786 44.3182C213.657 44.7917 213.426 45.2064 213.093 45.5625C212.763 45.9148 212.349 46.1894 211.849 46.3864C211.352 46.5795 210.786 46.6761 210.15 46.6761ZM216.998 34.8636V46.5H215.299V34.8636H216.998ZM220.502 41.3182V46.5H218.803V34.8636H220.479V39.1932H220.587C220.792 38.7235 221.104 38.3504 221.525 38.0739C221.945 37.7973 222.495 37.6591 223.173 37.6591C223.771 37.6591 224.294 37.7822 224.741 38.0284C225.192 38.2746 225.54 38.642 225.786 39.1307C226.036 39.6155 226.161 40.2216 226.161 40.9489V46.5H224.462V41.1534C224.462 40.5133 224.298 40.017 223.968 39.6648C223.639 39.3087 223.18 39.1307 222.593 39.1307C222.192 39.1307 221.832 39.2159 221.514 39.3864C221.199 39.5568 220.951 39.8068 220.769 40.1364C220.591 40.4621 220.502 40.8561 220.502 41.3182ZM227.948 46.5V37.7727H229.647V46.5H227.948ZM228.806 36.4261C228.511 36.4261 228.257 36.3277 228.045 36.1307C227.837 35.9299 227.732 35.6913 227.732 35.4148C227.732 35.1345 227.837 34.8958 228.045 34.6989C228.257 34.4981 228.511 34.3977 228.806 34.3977C229.102 34.3977 229.354 34.4981 229.562 34.6989C229.774 34.8958 229.88 35.1345 229.88 35.4148C229.88 35.6913 229.774 35.9299 229.562 36.1307C229.354 36.3277 229.102 36.4261 228.806 36.4261Z" fill="black"/>
<path d="M79 57.876V56.548H90.36V57.876H88.76V66.5H87.192V60.516L87.992 61.156C87.8213 61.0813 87.656 61.0333 87.496 61.012C87.3467 60.9907 87.1973 60.98 87.048 60.98C86.7067 60.98 86.4027 61.06 86.136 61.22C85.8693 61.38 85.6453 61.6467 85.464 62.02C85.2827 62.3827 85.1387 62.8733 85.032 63.492L83.496 63.076C83.6453 61.956 84.0187 61.108 84.616 60.532C85.224 59.956 86.024 59.668 87.016 59.668C87.2293 59.668 87.4373 59.684 87.64 59.716C87.8533 59.748 88.0293 59.7853 88.168 59.828L88.2 60.18L87.192 59.876V57.876H79ZM84.344 61.812C84.1627 61.5667 83.9387 61.3693 83.672 61.22C83.416 61.06 83.1067 60.98 82.744 60.98C82.2747 60.98 81.9067 61.1187 81.64 61.396C81.3733 61.6733 81.24 62.0467 81.24 62.516C81.24 63.0813 81.4533 63.604 81.88 64.084C82.3173 64.5533 83.016 65.0547 83.976 65.588L83.096 66.772C82.0293 66.1747 81.192 65.524 80.584 64.82C79.976 64.1053 79.672 63.2893 79.672 62.372C79.672 61.4653 79.9387 60.7827 80.472 60.324C81.016 59.8653 81.704 59.636 82.536 59.636C83.08 59.636 83.5493 59.7373 83.944 59.94C84.3493 60.132 84.7067 60.3933 85.016 60.724L84.344 61.812ZM92.7646 57.876V66.5H91.1966V57.876H89.8206V56.548H94.3646V57.876H92.7646ZM91.2126 56.66C90.9993 55.988 90.8126 55.4493 90.6526 55.044C90.5033 54.628 90.3486 54.3133 90.1886 54.1C90.0393 53.876 89.874 53.7267 89.6926 53.652C89.5113 53.5667 89.2873 53.524 89.0206 53.524C88.8073 53.524 88.5886 53.5507 88.3646 53.604C88.13 53.6467 87.922 53.7053 87.7406 53.78L87.3246 52.468C87.57 52.372 87.842 52.2973 88.1406 52.244C88.4286 52.1907 88.7113 52.164 88.9886 52.164C89.4686 52.164 89.874 52.2333 90.2046 52.372C90.546 52.5 90.8446 52.7347 91.1006 53.076C91.3673 53.4067 91.618 53.8653 91.8526 54.452C92.0873 55.028 92.3433 55.764 92.6206 56.66H91.2126ZM106.614 57.876H101.413V61.188L101.189 60.932C101.413 60.6867 101.701 60.4893 102.054 60.34C102.406 60.18 102.8 60.1 103.238 60.1C104.016 60.1 104.63 60.3347 105.078 60.804C105.526 61.2733 105.75 61.908 105.75 62.708C105.75 63.252 105.643 63.7853 105.43 64.308C105.227 64.8307 104.896 65.3587 104.438 65.892L103.078 65.076C103.408 64.724 103.675 64.356 103.878 63.972C104.08 63.588 104.182 63.1667 104.182 62.708C104.182 62.2813 104.08 61.9613 103.878 61.748C103.675 61.524 103.387 61.412 103.014 61.412C102.683 61.412 102.368 61.5187 102.069 61.732C101.781 61.9453 101.547 62.228 101.365 62.58L101.413 62.036V66.5H99.8455V63.236L100.181 63.7C99.9682 63.9027 99.7282 64.084 99.4615 64.244C99.2055 64.404 98.9175 64.5267 98.5975 64.612C98.2775 64.6973 97.9362 64.74 97.5735 64.74C96.9975 64.74 96.4748 64.6333 96.0055 64.42C95.5362 64.2067 95.1628 63.892 94.8855 63.476C94.6188 63.06 94.4855 62.548 94.4855 61.94C94.4855 61.0547 94.7788 60.3667 95.3655 59.876C95.9522 59.3853 96.7735 59.14 97.8295 59.14C98.1068 59.14 98.3682 59.156 98.6135 59.188C98.8588 59.2093 99.0882 59.2467 99.3015 59.3L99.1735 60.644C98.9922 60.6013 98.7948 60.5693 98.5815 60.548C98.3788 60.516 98.1602 60.5 97.9255 60.5C97.3282 60.5 96.8642 60.628 96.5335 60.884C96.2135 61.14 96.0535 61.508 96.0535 61.988C96.0535 62.4573 96.2028 62.8093 96.5015 63.044C96.8002 63.2787 97.1735 63.396 97.6215 63.396C98.1335 63.396 98.5922 63.2627 98.9975 62.996C99.4135 62.7293 99.7335 62.4147 99.9575 62.052L99.8455 63.012V57.876H93.7975V56.548H106.614V57.876ZM111.282 56.66C111.143 56.4147 111.026 56.1533 110.93 55.876C110.834 55.5987 110.786 55.2893 110.786 54.948C110.786 54.084 111.117 53.4067 111.778 52.916C112.439 52.4147 113.335 52.164 114.466 52.164C115.554 52.164 116.567 52.3613 117.506 52.756C118.445 53.1507 119.287 53.684 120.034 54.356C120.781 55.028 121.415 55.796 121.938 56.66H120.354C119.842 55.9773 119.287 55.4013 118.69 54.932C118.103 54.4627 117.485 54.1107 116.834 53.876C116.183 53.6307 115.517 53.508 114.834 53.508C114.045 53.508 113.431 53.6573 112.994 53.956C112.567 54.244 112.354 54.66 112.354 55.204C112.354 55.524 112.407 55.8067 112.514 56.052C112.631 56.2867 112.759 56.4893 112.898 56.66H111.282ZM112.914 57.876V66.5H111.346V57.876H109.97V56.548H114.514V57.876H112.914ZM113.947 56.548H123.339V57.876H121.739V66.5H120.171V61.908H117.435V62.612C117.435 62.964 117.35 63.2253 117.179 63.396C117.019 63.5667 116.8 63.652 116.523 63.652C116.31 63.652 116.086 63.588 115.851 63.46C115.616 63.3213 115.398 63.14 115.195 62.916C114.992 62.692 114.827 62.452 114.699 62.196C114.571 61.94 114.507 61.6947 114.507 61.46C114.507 61.1933 114.582 60.98 114.731 60.82C114.891 60.66 115.168 60.58 115.563 60.58H120.171V57.876H113.947V56.548ZM131.247 57.876V66.5H129.679V62.66H126.319V63.156C126.319 63.5293 126.233 63.8013 126.063 63.972C125.903 64.1427 125.7 64.228 125.455 64.228C125.231 64.228 124.996 64.1587 124.751 64.02C124.516 63.8813 124.292 63.7053 124.079 63.492C123.876 63.268 123.711 63.0333 123.583 62.788C123.455 62.532 123.391 62.2973 123.391 62.084C123.391 61.8813 123.465 61.7053 123.615 61.556C123.764 61.4067 124.036 61.332 124.431 61.332H124.751V57.876H122.799V56.548H132.847V57.876H131.247ZM129.679 57.876H126.319V61.332H129.679V57.876ZM135.251 57.876V66.5H133.683V57.876H132.307V56.548H136.851V57.876H135.251ZM133.164 56.66C132.886 56.372 132.657 56.0307 132.476 55.636C132.284 55.2307 132.188 54.8093 132.188 54.372C132.188 53.6253 132.428 53.0707 132.908 52.708C133.377 52.3453 133.98 52.164 134.716 52.164C135.068 52.164 135.388 52.2013 135.676 52.276C135.964 52.34 136.214 52.4253 136.428 52.532L136.076 53.652C135.884 53.588 135.702 53.5347 135.532 53.492C135.361 53.4493 135.174 53.428 134.972 53.428C134.566 53.428 134.257 53.5347 134.044 53.748C133.83 53.9613 133.724 54.2547 133.724 54.628C133.724 54.98 133.809 55.3267 133.98 55.668C134.15 55.9987 134.39 56.3293 134.7 56.66H133.164ZM146.54 57.876V66.5H144.972V57.876H142.956V61.348C142.956 61.6787 142.934 61.972 142.892 62.228C142.849 62.4733 142.785 62.6973 142.7 62.9C142.614 63.092 142.502 63.268 142.364 63.428C142.14 63.7053 141.841 63.9187 141.468 64.068C141.094 64.2173 140.636 64.292 140.092 64.292C139.558 64.292 139.1 64.212 138.716 64.052C138.332 63.8813 138.012 63.636 137.756 63.316C137.564 63.0707 137.414 62.7613 137.308 62.388C137.212 62.004 137.164 61.5133 137.164 60.916V57.876H135.964V56.548H148.14V57.876H146.54ZM140.06 62.964C140.561 62.964 140.913 62.8093 141.116 62.5C141.222 62.3293 141.292 62.132 141.324 61.908C141.366 61.684 141.388 61.3587 141.388 60.932V57.876H138.748V60.932C138.748 61.3267 138.764 61.6413 138.796 61.876C138.838 62.1 138.908 62.292 139.004 62.452C139.11 62.612 139.244 62.74 139.404 62.836C139.574 62.9213 139.793 62.964 140.06 62.964ZM152.823 56.66C152.685 56.4147 152.567 56.1533 152.471 55.876C152.375 55.5987 152.327 55.2893 152.327 54.948C152.327 54.084 152.658 53.4067 153.319 52.916C153.981 52.4147 154.877 52.164 156.007 52.164C157.095 52.164 158.109 52.3613 159.047 52.756C159.986 53.1507 160.829 53.684 161.575 54.356C162.322 55.028 162.957 55.796 163.479 56.66H161.895C161.383 55.9773 160.829 55.4013 160.231 54.932C159.645 54.4627 159.026 54.1107 158.375 53.876C157.725 53.6307 157.058 53.508 156.375 53.508C155.586 53.508 154.973 53.6573 154.535 53.956C154.109 54.244 153.895 54.66 153.895 55.204C153.895 55.524 153.949 55.8067 154.055 56.052C154.173 56.2867 154.301 56.4893 154.439 56.66H152.823ZM154.455 57.876V66.5H152.887V57.876H151.511V56.548H156.055V57.876H154.455ZM164.832 57.876H163.232V66.5H161.68V63.396L162.192 63.716C161.872 64.0573 161.472 64.324 160.992 64.516C160.523 64.6973 159.995 64.788 159.408 64.788C158.779 64.788 158.219 64.676 157.728 64.452C157.248 64.228 156.869 63.908 156.592 63.492C156.315 63.0653 156.176 62.5533 156.176 61.956C156.176 61.0173 156.485 60.3133 157.104 59.844C157.723 59.3747 158.528 59.14 159.52 59.14C159.829 59.14 160.117 59.156 160.384 59.188C160.651 59.22 160.901 59.2627 161.136 59.316L161.024 60.644C160.811 60.6013 160.592 60.5693 160.368 60.548C160.155 60.516 159.915 60.5 159.648 60.5C159.093 60.5 158.635 60.628 158.272 60.884C157.92 61.14 157.744 61.5133 157.744 62.004C157.744 62.4307 157.888 62.7773 158.176 63.044C158.464 63.3107 158.885 63.444 159.44 63.444C159.941 63.444 160.405 63.3267 160.832 63.092C161.259 62.8467 161.595 62.532 161.84 62.148L161.68 63.076V57.876H155.488V56.548H164.832V57.876ZM167.269 56.388C167.92 56.388 168.437 56.5053 168.821 56.74C169.216 56.9747 169.498 57.3053 169.669 57.732C169.84 58.1587 169.925 58.6493 169.925 59.204V61.332H172.965V57.876H171.029V56.548H176.133V57.876H174.533V66.5H172.965V62.66H169.925V63.156C169.925 63.5293 169.84 63.8013 169.669 63.972C169.498 64.1427 169.29 64.228 169.045 64.228C168.821 64.228 168.586 64.1587 168.341 64.02C168.106 63.8813 167.882 63.7053 167.669 63.492C167.466 63.268 167.301 63.0333 167.173 62.788C167.045 62.532 166.981 62.2973 166.981 62.084C166.981 61.9453 167.013 61.8173 167.077 61.7C167.152 61.5827 167.264 61.492 167.413 61.428C167.562 61.364 167.77 61.332 168.037 61.332L168.389 61.364V59.252C168.389 58.6973 168.309 58.276 168.149 57.988C167.989 57.7 167.706 57.556 167.301 57.556C167.034 57.556 166.826 57.6307 166.677 57.78C166.528 57.9187 166.453 58.1 166.453 58.324C166.453 58.6013 166.554 58.8147 166.757 58.964C166.97 59.1133 167.29 59.2093 167.717 59.252L167.573 60.42C166.826 60.3667 166.213 60.164 165.733 59.812C165.264 59.4493 165.029 58.9427 165.029 58.292C165.029 57.6627 165.237 57.188 165.653 56.868C166.08 56.548 166.618 56.388 167.269 56.388ZM178.526 57.876V66.5H176.958V57.876H175.582V56.548H180.126V57.876H178.526ZM183.095 57.876V62.772C183.095 63.1027 183.021 63.3587 182.871 63.54C182.722 63.7213 182.509 63.812 182.231 63.812C182.007 63.812 181.773 63.7427 181.527 63.604C181.293 63.4653 181.069 63.284 180.855 63.06C180.653 62.836 180.487 62.596 180.359 62.34C180.231 62.084 180.167 61.8387 180.167 61.604C180.167 61.348 180.242 61.14 180.391 60.98C180.551 60.8093 180.834 60.724 181.239 60.724L181.527 60.74V57.876H179.559V56.548H189.047V57.876H187.447V66.5H185.879V57.876H183.095ZM191.857 64.9091L191.772 65.5284C191.715 65.983 191.619 66.4564 191.482 66.9489C191.35 67.4451 191.211 67.9053 191.067 68.3295C190.927 68.7538 190.812 69.0909 190.721 69.3409H189.516C189.566 69.1061 189.634 68.7879 189.721 68.3864C189.808 67.9886 189.893 67.5436 189.977 67.0511C190.06 66.5587 190.122 66.0568 190.164 65.5455L190.221 64.9091H191.857ZM197.865 56.66C197.695 56.3827 197.561 56.0947 197.465 55.796C197.38 55.4973 197.337 55.1773 197.337 54.836C197.337 54.0147 197.641 53.364 198.249 52.884C198.868 52.404 199.711 52.164 200.777 52.164C201.823 52.164 202.799 52.3507 203.705 52.724C204.612 53.0867 205.428 53.604 206.153 54.276C206.889 54.9373 207.529 55.732 208.073 56.66H206.473C206.047 56.0093 205.551 55.4493 204.985 54.98C204.431 54.5 203.817 54.132 203.145 53.876C202.484 53.62 201.796 53.492 201.081 53.492C200.388 53.492 199.849 53.6413 199.465 53.94C199.092 54.2387 198.905 54.644 198.905 55.156C198.905 55.4547 198.953 55.7267 199.049 55.972C199.156 56.2067 199.284 56.436 199.433 56.66H197.865ZM199.465 57.876V66.5H197.897V57.876H196.521V56.548H201.065V57.876H199.465ZM207.106 67.556C206.871 67.0973 206.669 66.6387 206.498 66.18C206.327 65.7213 206.189 65.3107 206.082 64.948L205.89 64.34C205.815 64.18 205.762 64.02 205.73 63.86C205.698 63.7 205.682 63.5453 205.682 63.396C205.682 63.0547 205.789 62.788 206.002 62.596C206.215 62.404 206.509 62.308 206.882 62.308C207.319 62.308 207.671 62.4413 207.938 62.708C208.215 62.9747 208.354 63.2893 208.354 63.652C208.354 63.9613 208.253 64.2333 208.05 64.468C207.858 64.692 207.575 64.8787 207.202 65.028L206.882 65.14C206.626 65.2147 206.375 65.2787 206.13 65.332C205.895 65.3747 205.602 65.396 205.25 65.396C204.759 65.396 204.274 65.3373 203.794 65.22C203.325 65.092 202.898 64.9 202.514 64.644C202.141 64.388 201.842 64.0573 201.618 63.652C201.394 63.236 201.282 62.7347 201.282 62.148C201.282 61.1667 201.618 60.436 202.29 59.956C202.962 59.476 203.959 59.236 205.282 59.236H206.354L206.098 59.78V57.876H200.498V56.548H209.314V57.876H207.65V60.532H205.522C204.626 60.532 203.954 60.6707 203.506 60.948C203.069 61.2147 202.85 61.6413 202.85 62.228C202.85 62.804 203.063 63.252 203.49 63.572C203.927 63.8813 204.509 64.036 205.234 64.036C205.415 64.036 205.613 64.02 205.826 63.988C206.05 63.956 206.274 63.8867 206.498 63.78L207.362 64.676C207.511 65.028 207.677 65.3853 207.858 65.748C208.039 66.1107 208.263 66.5107 208.53 66.948L207.106 67.556ZM212.915 66.772C211.848 66.1747 211.011 65.524 210.403 64.82C209.795 64.1053 209.491 63.2893 209.491 62.372C209.491 61.4653 209.757 60.7827 210.291 60.324C210.835 59.8653 211.523 59.636 212.355 59.636C212.899 59.636 213.368 59.7373 213.763 59.94C214.168 60.132 214.525 60.3933 214.835 60.724L214.163 61.812C213.981 61.5667 213.757 61.3693 213.491 61.22C213.235 61.06 212.925 60.98 212.563 60.98C212.093 60.98 211.725 61.1187 211.459 61.396C211.192 61.6733 211.059 62.0467 211.059 62.516C211.059 63.0813 211.272 63.604 211.699 64.084C212.136 64.5533 212.835 65.0547 213.795 65.588L212.915 66.772ZM214.851 63.492L213.315 63.076C213.464 61.956 213.837 61.108 214.435 60.532C215.043 59.956 215.843 59.668 216.835 59.668C217.005 59.668 217.181 59.6787 217.363 59.7C217.544 59.7213 217.683 59.7533 217.779 59.796V61.076C217.629 61.0333 217.48 61.0067 217.331 60.996C217.192 60.9853 217.048 60.98 216.899 60.98C216.547 60.98 216.232 61.06 215.955 61.22C215.688 61.38 215.464 61.6467 215.283 62.02C215.101 62.3827 214.957 62.8733 214.851 63.492ZM208.819 57.876V56.548H217.123V57.876H208.819ZM215.874 57.876V56.548H227.234V57.876H225.634V66.5H224.066V60.516L224.866 61.156C224.695 61.0813 224.53 61.0333 224.37 61.012C224.22 60.9907 224.071 60.98 223.922 60.98C223.58 60.98 223.276 61.06 223.01 61.22C222.743 61.38 222.519 61.6467 222.338 62.02C222.156 62.3827 222.012 62.8733 221.906 63.492L220.37 63.076C220.519 61.956 220.892 61.108 221.49 60.532C222.098 59.956 222.898 59.668 223.89 59.668C224.103 59.668 224.311 59.684 224.514 59.716C224.727 59.748 224.903 59.7853 225.042 59.828L225.074 60.18L224.066 59.876V57.876H215.874ZM221.218 61.812C221.036 61.5667 220.812 61.3693 220.546 61.22C220.29 61.06 219.98 60.98 219.618 60.98C219.148 60.98 218.78 61.1187 218.514 61.396C218.247 61.6733 218.114 62.0467 218.114 62.516C218.114 63.0813 218.327 63.604 218.754 64.084C219.191 64.5533 219.89 65.0547 220.85 65.588L219.97 66.772C218.903 66.1747 218.066 65.524 217.458 64.82C216.85 64.1053 216.546 63.2893 216.546 62.372C216.546 61.4653 216.812 60.7827 217.346 60.324C217.89 59.8653 218.578 59.636 219.41 59.636C219.954 59.636 220.423 59.7373 220.818 59.94C221.223 60.132 221.58 60.3933 221.89 60.724L221.218 61.812ZM223.542 56.66C223.361 56.2973 223.228 55.94 223.142 55.588C223.046 55.2253 222.998 54.884 222.998 54.564C222.998 53.8493 223.222 53.2733 223.67 52.836C224.118 52.388 224.748 52.164 225.558 52.164C226.337 52.164 226.977 52.34 227.478 52.692C227.99 53.044 228.406 53.556 228.726 54.228C229.046 54.9 229.308 55.7107 229.51 56.66H228.07C227.846 55.5933 227.548 54.7987 227.174 54.276C226.812 53.7533 226.358 53.492 225.814 53.492C225.388 53.492 225.073 53.6147 224.87 53.86C224.668 54.1053 224.566 54.4307 224.566 54.836C224.566 55.1347 224.614 55.4387 224.71 55.748C224.806 56.0467 224.929 56.3507 225.078 56.66H223.542ZM229.638 57.876V66.5H228.07V57.876H226.694V56.548H231.238V57.876H229.638ZM239.13 66.772C238.308 65.9507 237.594 65.172 236.986 64.436C236.388 63.7 235.951 63.076 235.674 62.564C235.514 62.2867 235.396 62.0307 235.322 61.796C235.247 61.5507 235.21 61.3267 235.21 61.124C235.21 60.836 235.295 60.6067 235.466 60.436C235.636 60.2653 235.871 60.18 236.17 60.18C236.49 60.18 236.788 60.2867 237.066 60.5C237.343 60.7133 237.62 60.9907 237.898 61.332L236.97 61.22C237.418 61.0387 237.727 60.7667 237.898 60.404C238.068 60.0413 238.154 59.6467 238.154 59.22C238.154 58.8573 238.111 58.5373 238.026 58.26C237.951 57.972 237.86 57.7427 237.754 57.572L238.538 57.876H234.586V56.548H241.418V57.876H238.874L239.354 57.556C239.482 57.8227 239.578 58.1053 239.642 58.404C239.706 58.692 239.738 59.0227 239.738 59.396C239.738 59.8227 239.668 60.212 239.53 60.564C239.402 60.916 239.215 61.2253 238.97 61.492L238.874 61.636C238.682 61.86 238.447 62.0573 238.17 62.228C237.903 62.388 237.572 62.5427 237.178 62.692L237.146 62.484C237.412 62.836 237.706 63.188 238.026 63.54C238.356 63.892 238.714 64.2547 239.098 64.628C239.482 64.9907 239.882 65.3693 240.298 65.764L239.13 66.772ZM241.13 62.724C240.682 62.724 240.207 62.6707 239.706 62.564C239.215 62.4573 238.73 62.276 238.25 62.02L238.73 60.9C239.167 61.0707 239.567 61.1933 239.93 61.268C240.292 61.3427 240.687 61.38 241.114 61.38C241.551 61.38 241.967 61.3427 242.362 61.268C242.756 61.1827 243.162 61.0493 243.578 60.868V62.276C243.204 62.436 242.815 62.5533 242.41 62.628C242.004 62.692 241.578 62.724 241.13 62.724ZM242.746 66.5V57.876H241.018V56.548H245.93V57.876H244.33V66.5H242.746ZM250.207 57.876L250.639 57.572C250.756 57.828 250.842 58.0947 250.895 58.372C250.948 58.6493 250.975 58.964 250.975 59.316C250.975 59.892 250.858 60.3933 250.623 60.82C250.388 61.236 250.052 61.5987 249.615 61.908C249.188 62.2067 248.687 62.468 248.111 62.692L248.127 62.452C248.436 62.7933 248.772 63.1507 249.135 63.524C249.508 63.8973 249.898 64.2653 250.303 64.628C250.719 64.9907 251.14 65.3533 251.567 65.716L250.463 66.74C249.61 65.9933 248.874 65.3 248.255 64.66C247.647 64.02 247.14 63.412 246.735 62.836C246.468 62.4733 246.276 62.1533 246.159 61.876C246.052 61.5987 245.999 61.3373 245.999 61.092C245.999 60.8147 246.084 60.596 246.255 60.436C246.426 60.2653 246.66 60.18 246.959 60.18C247.268 60.18 247.562 60.2867 247.839 60.5C248.127 60.7027 248.415 60.9853 248.703 61.348L247.791 61.14C248.367 60.9373 248.783 60.6707 249.039 60.34C249.295 59.9987 249.423 59.588 249.423 59.108C249.423 58.8093 249.38 58.516 249.295 58.228C249.22 57.9293 249.119 57.7107 248.991 57.572L249.743 57.876H245.375V56.548H252.319V57.876H250.207ZM264.574 57.876H259.374V61.188L259.15 60.932C259.374 60.6867 259.662 60.4893 260.014 60.34C260.366 60.18 260.761 60.1 261.198 60.1C261.977 60.1 262.59 60.3347 263.038 60.804C263.486 61.2733 263.71 61.908 263.71 62.708C263.71 63.252 263.603 63.7853 263.39 64.308C263.187 64.8307 262.857 65.3587 262.398 65.892L261.038 65.076C261.369 64.724 261.635 64.356 261.838 63.972C262.041 63.588 262.142 63.1667 262.142 62.708C262.142 62.2813 262.041 61.9613 261.838 61.748C261.635 61.524 261.347 61.412 260.974 61.412C260.643 61.412 260.329 61.5187 260.03 61.732C259.742 61.9453 259.507 62.228 259.326 62.58L259.374 62.036V66.5H257.806V63.236L258.142 63.7C257.929 63.9027 257.689 64.084 257.422 64.244C257.166 64.404 256.878 64.5267 256.558 64.612C256.238 64.6973 255.897 64.74 255.534 64.74C254.958 64.74 254.435 64.6333 253.966 64.42C253.497 64.2067 253.123 63.892 252.846 63.476C252.579 63.06 252.446 62.548 252.446 61.94C252.446 61.0547 252.739 60.3667 253.326 59.876C253.913 59.3853 254.734 59.14 255.79 59.14C256.067 59.14 256.329 59.156 256.574 59.188C256.819 59.2093 257.049 59.2467 257.262 59.3L257.134 60.644C256.953 60.6013 256.755 60.5693 256.542 60.548C256.339 60.516 256.121 60.5 255.886 60.5C255.289 60.5 254.825 60.628 254.494 60.884C254.174 61.14 254.014 61.508 254.014 61.988C254.014 62.4573 254.163 62.8093 254.462 63.044C254.761 63.2787 255.134 63.396 255.582 63.396C256.094 63.396 256.553 63.2627 256.958 62.996C257.374 62.7293 257.694 62.4147 257.918 62.052L257.806 63.012V57.876H251.758V56.548H264.574V57.876ZM266.96 57.876V66.5H265.392V57.876H264.016V56.548H268.56V57.876H266.96ZM272.825 57.876L273.257 57.572C273.374 57.828 273.46 58.0947 273.513 58.372C273.566 58.6493 273.593 58.964 273.593 59.316C273.593 59.892 273.476 60.3933 273.241 60.82C273.006 61.236 272.67 61.5987 272.233 61.908C271.806 62.2067 271.305 62.468 270.729 62.692L270.745 62.452C271.054 62.7933 271.39 63.1507 271.753 63.524C272.126 63.8973 272.516 64.2653 272.921 64.628C273.337 64.9907 273.758 65.3533 274.185 65.716L273.081 66.74C272.228 65.9933 271.492 65.3 270.873 64.66C270.265 64.02 269.758 63.412 269.353 62.836C269.086 62.4733 268.894 62.1533 268.777 61.876C268.67 61.5987 268.617 61.3373 268.617 61.092C268.617 60.8147 268.702 60.596 268.873 60.436C269.044 60.2653 269.278 60.18 269.577 60.18C269.886 60.18 270.18 60.2867 270.457 60.5C270.745 60.7027 271.033 60.9853 271.321 61.348L270.409 61.14C270.985 60.9373 271.401 60.6707 271.657 60.34C271.913 59.9987 272.041 59.588 272.041 59.108C272.041 58.8093 271.998 58.516 271.913 58.228C271.838 57.9293 271.737 57.7107 271.609 57.572L272.361 57.876H267.993V56.548H274.937V57.876H272.825Z" fill="black"/>
<defs>
<clipPath id="clip0_867_1141">
<rect width="67" height="77" fill="white"/>
</clipPath>
</defs>
</svg>
